{
	"asset":{
		"generator":"Khronos glTF Blender I/O v4.2.60",
		"version":"2.0"
	},
	"scene":0,
	"scenes":[
		{
			"name":"Scene",
			"nodes":[
				0
			]
		}
	],
	"nodes":[
		{
			"mesh":0,
			"name":"Ground.014",
			"rotation":[
				0.7071068286895752,
				0,
				0,
				0.7071068286895752
			]
		}
	],
	"meshes":[
		{
			"name":"Plane.009",
			"primitives":[
				{
					"attributes":{
						"POSITION":0,
						"NORMAL":1,
						"TEXCOORD_0":2
					},
					"indices":3
				}
			]
		}
	],
	"accessors":[
		{
			"bufferView":0,
			"componentType":5126,
			"count":220,
			"max":[
				30,
				0.11210133135318756,
				30
			],
			"min":[
				-30,
				-0.571517825126648,
				-30
			],
			"type":"VEC3"
		},
		{
			"bufferView":1,
			"componentType":5126,
			"count":220,
			"type":"VEC3"
		},
		{
			"bufferView":2,
			"componentType":5126,
			"count":220,
			"type":"VEC2"
		},
		{
			"bufferView":3,
			"componentType":5123,
			"count":408,
			"type":"SCALAR"
		}
	],
	"bufferViews":[
		{
			"buffer":0,
			"byteLength":2640,
			"byteOffset":0,
			"target":34962
		},
		{
			"buffer":0,
			"byteLength":2640,
			"byteOffset":2640,
			"target":34962
		},
		{
			"buffer":0,
			"byteLength":1760,
			"byteOffset":5280,
			"target":34962
		},
		{
			"buffer":0,
			"byteLength":816,
			"byteOffset":7040,
			"target":34963
		}
	],
	"buffers":[
		{
			"byteLength":7856,
			"uri":"Ground.bin"
		}
	]
}
